<?xml version="1.0" encoding="UTF-8"?> <!-- Creator: CorelDRAW Home & Student 2018 --> <svg xmlns="http://www.w3.org/2000/svg" xmlns:xlink="http://www.w3.org/1999/xlink" xml:space="preserve" width="3300px" height="900px" version="1.1" style="shape-rendering:geometricPrecision; text-rendering:geometricPrecision; image-rendering:optimizeQuality; fill-rule:evenodd; clip-rule:evenodd" viewBox="0 0 3300 900"> <defs> <style type="text/css"> <![CDATA[ .fil5 {fill:#003D66} .fil0 {fill:#00548C} .fil1 {fill:#006BB2} .fil2 {fill:#0082D9} .fil3 {fill:#0099FF} .fil4 {fill:#00B7FF} .fil6 {fill:#003D66;fill-rule:nonzero} .fil7 {fill:#006BB2;fill-rule:nonzero} ]]> </style> </defs> <g id="Layer_x0020_1"> <metadata id="CorelCorpID_0Corel-Layer"></metadata> <path class="fil0" d="M528.96 766.32l111.71 -111.72c55.65,-55.64 83.38,-128.39 83.4,-201.34 -0.01,-72.95 -27.74,-145.68 -83.4,-201.34l16.09 -16.09 15.53 -15.54c63.1,63.91 94.57,147.1 94.59,230.49 -0.02,84.03 -32,167.89 -96.11,232.01 -40.92,40.92 -89.89,68.74 -141.81,83.53zm-326.46 -543.24l3.32 -3.33c1.8,-1.79 3.62,-3.56 5.46,-5.31l0.17 0.17 4.91 -4.91c7.45,-6.83 15.14,-13.26 23.04,-19.29l0.13 0.13 0.92 -0.92c1.94,-1.47 3.89,-2.91 5.86,-4.33l0.24 0.24 1.44 -1.45c5.75,-4.09 11.59,-7.99 17.53,-11.67l0.08 0.08 0.35 -0.34c1.51,-0.94 3.03,-1.87 4.56,-2.77l0.11 0.1 0.44 -0.44c1.5,-0.89 3.01,-1.75 4.52,-2.61l0.05 0.04 0.16 -0.16c2.93,-1.67 5.87,-3.31 8.84,-4.88l0.03 0.03 0.09 -0.09c1.27,-0.68 2.56,-1.34 3.84,-1.99l0.08 0.07 0.24 -0.23c1.22,-0.63 2.44,-1.27 3.67,-1.87l0.1 0.1 0.32 -0.32c1.21,-0.6 2.42,-1.16 3.64,-1.74l0.05 0.05 0.15 -0.15c2.21,-1.06 4.42,-2.08 6.64,-3.09l0.23 0.23 0.61 -0.61c1.1,-0.49 2.2,-1 3.31,-1.48l0.09 0.09 0.23 -0.23c6.53,-2.83 13.15,-5.42 19.82,-7.81l0.01 0.01 0.02 -0.02 2.92 -1.04 0.07 0.06 0.13 -0.13 2.8 -0.94 0.07 0.07 0.15 -0.15 2.79 -0.93 0.08 0.08 0.15 -0.16 2.81 -0.89 0.04 0.04 0.08 -0.08c4.6,-1.44 9.21,-2.8 13.85,-4.04l0.11 0.11 0.19 -0.19c2.56,-0.68 5.13,-1.33 7.7,-1.95l0.14 0.14 0.21 -0.22c4.26,-1.02 8.53,-1.95 12.81,-2.8l0.01 0.01 0.02 -0.01c3.95,-0.79 7.92,-1.49 11.89,-2.12l0.13 0.12 0.17 -0.17c2.22,-0.35 4.45,-0.69 6.68,-1l0.17 0.17 0.22 -0.22c2.24,-0.31 4.47,-0.6 6.72,-0.86l0.08 0.08 0.09 -0.1c2.97,-0.34 5.95,-0.64 8.93,-0.91l0 0 0 0c5.66,-0.5 11.32,-0.85 16.99,-1.06l0.06 0.06 0.07 -0.07 1.81 -0.06 0.13 0.13 0.14 -0.14 1.66 -0.06 0.2 0.2 0.22 -0.22c5.2,-0.12 10.4,-0.12 15.61,0l0.22 0.22 0.21 -0.22 1.64 0.06 0.15 0.16 0.15 -0.15 1.77 0.07 0.09 0.08 0.08 -0.08 1.92 0.07 0.01 0.01 0.01 -0.01c5,0.21 10,0.54 14.99,0.97l0.04 0.04 0.04 -0.03c2.95,0.25 5.89,0.55 8.83,0.88l0.16 0.16 0.12 -0.13c2.2,0.26 4.4,0.54 6.6,0.84l0.29 0.29 0.23 -0.23c2.18,0.3 4.36,0.63 6.53,0.97l0.26 0.26 0.19 -0.19c2.27,0.36 4.54,0.75 6.8,1.16l0.03 0.03 0.03 -0.02c3.31,0.6 6.62,1.24 9.91,1.94l0.09 0.09 0.06 -0.06c2.55,0.54 5.08,1.12 7.61,1.71l0.36 0.36 0.22 -0.22c1.58,0.38 3.17,0.78 4.75,1.18l0.04 0.04 0.02 -0.02 2.64 0.68 0.35 0.34 0.2 -0.2c2.6,0.69 5.2,1.41 7.79,2.17l0.03 0.04 0.02 -0.02c1.91,0.56 3.81,1.14 5.71,1.74l0.29 0.28 0.15 -0.15c0.82,0.26 1.65,0.5 2.46,0.76l0.4 0.4 0.19 -0.2 2.44 0.82 0.38 0.38 0.19 -0.19 2.45 0.83 0.36 0.36 0.19 -0.18 2.53 0.89 0.29 0.3 0.14 -0.14 2.72 0.99 0.15 0.15 0.07 -0.07c4.35,1.6 8.67,3.3 12.97,5.08l1.19 0.5c3.22,1.38 6.42,2.8 9.6,4.28l0.24 0.23 0.08 -0.08c1.17,0.54 2.33,1.09 3.49,1.65l0.44 0.44 0.15 -0.15c6.98,3.37 13.86,7.01 20.63,10.9l0.28 0.28 0.07 -0.07c1.52,0.87 3.02,1.76 4.52,2.66l0.42 0.42 0.11 -0.11c22.48,13.52 43.69,29.98 63.09,49.38 0.51,0.51 1.02,1.03 1.52,1.54l-15.53 15.54 -16.09 16.09c-55.65,-55.65 -128.38,-83.38 -201.34,-83.4 -72.94,0.02 -145.69,27.76 -201.35,83.39l-117.04 117.05c13.64,-53.2 40.81,-103.62 81.56,-145.88z"></path> <path class="fil1" d="M633.88 277.56l-0.23 0.23 3.66 3.66c2.93,3.37 5.76,6.8 8.48,10.28l-0.11 0.1 0.93 0.92c1.78,2.31 3.51,4.64 5.21,6.99l-0.12 0.11 0.71 0.71c1.49,2.07 2.94,4.16 4.36,6.26l-0.05 0.05 0.26 0.27c1.28,1.9 2.53,3.82 3.76,5.74l-0.01 0.01 0.03 0.03c1.04,1.64 2.04,3.28 3.04,4.92l-0.07 0.07 0.26 0.25c0.95,1.57 1.87,3.15 2.78,4.73l-0.02 0.03 0.08 0.08c2.44,4.27 4.76,8.58 6.94,12.95l-0.01 0.01 0.03 0.02c1.79,3.59 3.49,7.22 5.12,10.88l-0.13 0.13 0.33 0.33c2.85,6.48 5.44,13.04 7.74,19.67l-0.05 0.06 0.11 0.1 0.95 2.85 -0.06 0.05 0.12 0.12 0.94 2.84 -0.05 0.05 0.09 0.1c1.47,4.58 2.8,9.21 4,13.86l-0.08 0.08 0.14 0.14c0.68,2.61 1.31,5.22 1.9,7.85l-0.04 0.04 0.07 0.06c1.64,7.27 2.96,14.6 3.98,21.96l-0.04 0.04 0.05 0.05c0.91,6.64 1.57,13.3 1.98,19.98l-0.02 0.02 0.02 0.03 0.11 1.84 -0.13 0.14 0.15 0.15 0.09 1.62 -0.24 0.24 0.26 0.25c0.35,7.85 0.35,15.71 0,23.56l-0.26 0.25 0.24 0.24 -0.09 1.62 -0.15 0.15 0.13 0.13 -0.11 1.86 -0.02 0.02 0.02 0.01c-0.41,6.69 -1.07,13.36 -1.98,20l-0.05 0.04 0.04 0.04c-0.78,5.65 -1.75,11.27 -2.9,16.87l-0.14 0.14 0.09 0.09c-0.34,1.63 -0.69,3.26 -1.05,4.88l-0.05 0.05 0.03 0.02c-0.6,2.63 -1.23,5.26 -1.91,7.88l-0.12 0.12 0.07 0.07c-1.21,4.66 -2.54,9.3 -4.01,13.89l-0.08 0.08 0.04 0.04 -0.95 2.88 -0.09 0.09 0.04 0.04 -0.97 2.9 -0.07 0.07 0.03 0.03c-2.31,6.66 -4.9,13.24 -7.77,19.74l-0.28 0.28 0.1 0.11c-3.6,8.15 -7.65,16.14 -12.13,23.95l-0.01 0.01 0.01 0.01c-0.93,1.62 -1.88,3.23 -2.85,4.84l-0.17 0.17 0.04 0.04c-2.2,3.66 -4.52,7.27 -6.92,10.85l-0.14 0.14 0.03 0.02c-1.46,2.16 -2.95,4.31 -4.48,6.44l-0.56 0.56 0.1 0.09c-1.77,2.44 -3.57,4.85 -5.43,7.24l-0.69 0.69 0.08 0.08c-2.85,3.65 -5.83,7.23 -8.9,10.75l-3.21 3.21 0.2 0.2c-2.95,3.27 -6.01,6.48 -9.15,9.64l-136.55 136.54c-16.36,2.48 -32.87,3.72 -49.39,3.73 -6.06,-0.01 -12.11,-0.18 -18.15,-0.51l171.92 -171.93c42.27,-42.27 63.33,-97.62 63.35,-153.2 -0.03,-55.57 -21.09,-110.93 -63.35,-153.21l16.08 -16.07 16.08 -16.09c3.16,3.16 6.22,6.39 9.19,9.67zm-520.52 130.93l140.6 -140.6c1.8,-1.8 3.62,-3.56 5.47,-5.3l0.16 0.16 4.07 -4.07c6.38,-5.78 12.99,-11.16 19.79,-16.19l0.2 0.2 1.36 -1.35c2.19,-1.6 4.42,-3.16 6.65,-4.68l0.01 0.02 0.1 -0.1c1.96,-1.33 3.93,-2.64 5.92,-3.92l0 0 0.01 0c1.63,-1.05 3.27,-2.08 4.92,-3.09l0.08 0.08 0.35 -0.34c1.53,-0.93 3.06,-1.84 4.6,-2.74l0.07 0.07 0.27 -0.26c5.47,-3.17 11.04,-6.13 16.68,-8.86l0.1 0.1 0.29 -0.29c1.22,-0.59 2.44,-1.19 3.68,-1.76l0.04 0.04 0.13 -0.12c2.24,-1.04 4.5,-2.04 6.77,-3.01l0.12 0.13 0.32 -0.32c2.21,-0.94 4.43,-1.85 6.66,-2.73l0.04 0.03 0.09 -0.08c8.85,-3.49 17.85,-6.48 26.96,-8.97l0.03 0.03 0.06 -0.06c2.62,-0.71 5.25,-1.39 7.89,-2.02l0.07 0.07 0.13 -0.12c6.58,-1.57 13.21,-2.88 19.88,-3.94l0.05 0.05 0.07 -0.06c2.29,-0.37 4.59,-0.7 6.89,-1l0.06 0.06 0.08 -0.08c7.29,-0.96 14.61,-1.61 21.95,-1.96l0.03 0.04 0.04 -0.04 1.86 -0.07 0.11 0.11 0.11 -0.12 1.72 -0.06 0.17 0.17 0.19 -0.18c5.22,-0.16 10.43,-0.17 15.65,-0.02l0.21 0.21 0.19 -0.19 1.69 0.06 0.12 0.12 0.12 -0.11 1.84 0.06 0.05 0.05 0.05 -0.04c7.3,0.33 14.6,0.97 21.87,1.9l0.15 0.15 0.11 -0.11c2.25,0.29 4.5,0.61 6.75,0.96l0.15 0.15 0.11 -0.11c6.6,1.04 13.17,2.32 19.69,3.86l0.26 0.26 0.16 -0.16c2.54,0.61 5.08,1.24 7.61,1.92l0.25 0.25 0.14 -0.14c12.53,3.4 24.84,7.76 36.84,13.04l0.13 0.14 0.05 -0.05 3.45 1.54 0.51 0.51 0.19 -0.19c5.21,2.41 10.35,5.02 15.43,7.79l0.43 0.43 0.12 -0.13c2.98,1.63 5.92,3.33 8.84,5.08l0.06 0.06 0.01 -0.01c3.7,2.22 7.35,4.54 10.96,6.96l0.06 0.07 0.01 -0.01c2.19,1.47 4.35,2.98 6.51,4.52l0.5 0.5 0.09 -0.08c2.42,1.75 4.83,3.54 7.21,5.38l0.73 0.72 0.08 -0.08c3.55,2.78 7.05,5.67 10.49,8.66l3.46 3.46 0.23 -0.22c3.35,3.02 6.64,6.14 9.87,9.37l-16.08 16.09 -16.08 16.07c-42.27,-42.25 -97.63,-63.31 -153.2,-63.35 -55.57,0.04 -110.93,21.09 -153.21,63.35l-174.62 174.62c-0.57,-7.95 -0.87,-15.92 -0.87,-23.9 0.01,-14.13 0.92,-28.25 2.73,-42.28z"></path> <path class="fil2" d="M585.65 325.79l-0.14 0.14 1.89 1.88c2.51,2.96 4.92,5.99 7.22,9.06l-0.08 0.09 0.61 0.62c3,4.03 5.83,8.15 8.47,12.36l-0.06 0.06 0.27 0.27c0.97,1.54 1.91,3.09 2.83,4.65l-0.09 0.09 0.32 0.32c2.42,4.14 4.68,8.36 6.77,12.65l-0.07 0.07 0.2 0.2c1.73,3.56 3.35,7.16 4.85,10.8l-0.03 0.03 0.08 0.08c3.21,7.8 5.91,15.78 8.06,23.87l-0.12 0.12 0.2 0.2c0.68,2.57 1.31,5.15 1.88,7.74l-0.08 0.08 0.13 0.13c0.72,3.28 1.36,6.57 1.9,9.87l-0.02 0.03 0.03 0.03c0.39,2.31 0.72,4.63 1.02,6.94l-0.05 0.05 0.07 0.06c0.38,2.98 0.69,5.97 0.94,8.96l0 0 0 0.01c0.88,10.67 0.88,21.41 0,32.08l-0.01 0.01 0.01 0c-0.25,2.99 -0.56,5.98 -0.95,8.97l-0.06 0.05 0.05 0.04c-0.31,2.33 -0.64,4.65 -1.03,6.96l-0.02 0.02 0.02 0.02c-0.55,3.32 -1.19,6.62 -1.92,9.9l-0.1 0.11 0.06 0.06c-0.58,2.61 -1.21,5.21 -1.89,7.79l-0.18 0.17 0.1 0.11c-2.16,8.1 -4.85,16.1 -8.08,23.92l-0.05 0.04 0.02 0.02c-1.51,3.66 -3.14,7.29 -4.88,10.87l-0.15 0.14 0.05 0.06c-2.1,4.31 -4.38,8.56 -6.83,12.74l-0.24 0.24 0.07 0.07c-0.95,1.6 -1.92,3.2 -2.92,4.79l-0.16 0.16 0.04 0.03c-1.19,1.89 -2.42,3.76 -3.69,5.62l-0.36 0.36 0.07 0.07c-1.5,2.19 -3.04,4.37 -4.64,6.51l-0.44 0.44 0.06 0.06c-2.39,3.18 -4.88,6.31 -7.49,9.37l-1.6 1.6 0.11 0.12c-2.89,3.31 -5.91,6.56 -9.06,9.72l-185.01 185.01c-17.68,-2.55 -35.19,-6.56 -52.33,-11.99l205.18 -205.18c28.98,-29 43.41,-66.92 43.43,-105.07 -0.02,-38.15 -14.45,-76.07 -43.44,-105.07l16.08 -16.08 16.09 -16.08c3.17,3.17 6.19,6.43 9.09,9.76zm-470.81 177.51l187.27 -187.26c1.8,-1.8 3.64,-3.55 5.5,-5.27l0.11 0.12 2.44 -2.44c3.41,-3.05 6.9,-5.96 10.47,-8.73l0.13 0.13 0.93 -0.93c2.32,-1.77 4.66,-3.49 7.04,-5.14l0.05 0.05 0.26 -0.26c1.88,-1.3 3.79,-2.56 5.72,-3.79l0.04 0.04 0.19 -0.19c1.56,-1 3.14,-1.97 4.72,-2.92l0.1 0.11 0.42 -0.43c1.51,-0.89 3.03,-1.77 4.56,-2.62l0.04 0.04 0.14 -0.14c3.86,-2.15 7.78,-4.15 11.76,-6.01l0.13 0.13 0.38 -0.38c1.2,-0.56 2.41,-1.1 3.62,-1.64l0.01 0.02 0.04 -0.04c3.27,-1.44 6.58,-2.8 9.91,-4.06l0.08 0.08 0.16 -0.16 2.71 -0.98 0.14 0.14 0.3 -0.3c3.87,-1.37 7.77,-2.62 11.7,-3.74l0.03 0.03 0.05 -0.05c2.61,-0.74 5.23,-1.43 7.87,-2.07l0.1 0.11 0.18 -0.17c4.89,-1.17 9.83,-2.13 14.79,-2.92l0.08 0.09 0.11 -0.12c2.28,-0.35 4.55,-0.68 6.84,-0.96l0.07 0.07 0.09 -0.09c3.61,-0.43 7.24,-0.75 10.87,-0.98l0.07 0.07 0.07 -0.08 1.76 -0.1 0.18 0.18 0.2 -0.2c6.54,-0.34 13.09,-0.35 19.62,-0.03l0.23 0.23 0.21 -0.21 1.69 0.1 0.11 0.11 0.1 -0.1c3.6,0.22 7.2,0.54 10.78,0.95l0.15 0.15 0.12 -0.12c2.24,0.27 4.47,0.58 6.7,0.92l0.2 0.2 0.15 -0.14c18.91,2.93 37.47,8.66 55.01,17.19 4.37,2.13 8.68,4.43 12.92,6.91l0.12 0.11 0.03 -0.03c1.64,0.96 3.28,1.96 4.91,2.97l0.07 0.07 0.01 -0.01c1.93,1.21 3.83,2.46 5.72,3.74l0.28 0.28 0.06 -0.05c2.21,1.5 4.39,3.05 6.55,4.65l0.42 0.42 0.06 -0.06c3.15,2.36 6.24,4.82 9.28,7.4l1.69 1.68 0.13 -0.12c3.4,2.95 6.73,6.04 9.97,9.28l-16.09 16.08 -16.08 16.08c-28.99,-28.98 -66.92,-43.41 -105.06,-43.43 -38.14,0.03 -76.07,14.45 -105.06,43.44l-206.75 206.74c-5.64,-16.9 -9.86,-34.18 -12.68,-51.64z"></path> <path class="fil3" d="M533.66 369.75l-0.3 0.3 3.74 3.74c1.9,2.34 3.71,4.73 5.41,7.17l-0.12 0.12 0.69 0.69c1.19,1.72 2.33,3.46 3.42,5.23l-0.1 0.1 0.4 0.4c0.66,1.09 1.32,2.18 1.94,3.28l-0.33 0.33 1.2 1.21c0.67,1.21 1.31,2.44 1.94,3.67l-0.14 0.14 0.43 0.42c0.58,1.15 1.15,2.31 1.69,3.48l-0.11 0.11 0.3 0.29c1.44,3.13 2.74,6.32 3.91,9.54l-0.2 0.2 0.44 0.43 0.81 2.34 -0.25 0.24 0.49 0.48 0.73 2.31 -0.21 0.21 0.4 0.41 0.73 2.48 -0.13 0.12 0.23 0.23c0.7,2.55 1.33,5.12 1.87,7.7l-0.09 0.09 0.14 0.15c0.33,1.6 0.65,3.2 0.92,4.81l-0.06 0.06 0.08 0.08 0.25 1.6 -0.33 0.33 0.45 0.45c0.22,1.51 0.41,3.01 0.58,4.53l-0.03 0.03 0.04 0.04 0.19 1.74 -0.23 0.23 0.27 0.27 0.12 1.35 -0.39 0.38 0.46 0.46c0.48,6.37 0.48,12.77 -0.01,19.15l-0.45 0.45 0.38 0.38 -0.11 1.36 -0.27 0.26 0.22 0.22 -0.19 1.76 -0.03 0.03 0.02 0.02c-0.17,1.53 -0.36,3.04 -0.58,4.56l-0.44 0.44 0.32 0.31 -0.26 1.62 -0.06 0.07 0.04 0.04c-0.27,1.62 -0.58,3.24 -0.92,4.85l-0.12 0.13 0.08 0.08c-0.55,2.59 -1.18,5.17 -1.89,7.74l-0.2 0.2 0.11 0.11 -0.74 2.52 -0.37 0.37 0.2 0.2 -0.76 2.37 -0.45 0.45 0.23 0.22 -0.84 2.39 -0.39 0.39 0.18 0.18 -0.99 2.64 -0.19 0.19 0.08 0.09c-0.88,2.25 -1.83,4.48 -2.85,6.7l-0.24 0.23 0.08 0.09c-0.55,1.2 -1.14,2.39 -1.74,3.57l-1.35 1.36 0.44 0.44c-0.43,0.82 -0.88,1.64 -1.33,2.46l-1.11 1.11 0.31 0.3c-0.66,1.15 -1.33,2.28 -2.02,3.41l-0.3 0.3 0.07 0.07c-1.12,1.82 -2.3,3.62 -3.53,5.39l-1.55 1.56 0.26 0.26c-1.54,2.15 -3.16,4.26 -4.85,6.33l-4.44 4.44 0.33 0.33c-1.38,1.52 -2.8,3.02 -4.27,4.49l-212.7 212.7c-14.75,-5.95 -29.16,-13.03 -43.09,-21.22l223.63 -223.64c15.71,-15.73 23.5,-36.22 23.54,-56.93 -0.04,-20.71 -7.83,-41.2 -23.54,-56.93l16.08 -16.09 16.08 -16.07c1.82,1.82 3.56,3.69 5.24,5.58zm-397.4 208.4l213.98 -213.98c0.8,-0.79 1.6,-1.57 2.41,-2.34l0.2 0.2 3.94 -3.94c2.2,-1.91 4.44,-3.72 6.73,-5.45l0.36 0.37 2.35 -2.36c1.84,-1.3 3.7,-2.56 5.58,-3.76l0.1 0.1 0.43 -0.44c1.48,-0.92 2.97,-1.81 4.48,-2.68l0.1 0.11 0.38 -0.38c1.13,-0.64 2.25,-1.26 3.4,-1.86l0.23 0.23 0.71 -0.71c1.02,-0.53 2.04,-1.04 3.07,-1.53l0.23 0.24 0.66 -0.67c1.08,-0.5 2.15,-0.99 3.23,-1.46l0.12 0.12 0.32 -0.31c3.19,-1.38 6.42,-2.61 9.69,-3.72l0.02 0.02 0.03 -0.03c1.5,-0.51 3.01,-0.99 4.52,-1.44l0.47 0.47 0.83 -0.84 1.83 -0.51 0.34 0.35 0.58 -0.58 2.29 -0.58 0.14 0.15 0.24 -0.23c3.2,-0.76 6.43,-1.39 9.67,-1.89l0.12 0.12 0.16 -0.16 1.47 -0.22 0.38 0.38 0.49 -0.5c1.5,-0.2 3,-0.38 4.51,-0.52l0.01 0.01 0.02 -0.02 1.81 -0.15 0.18 0.18 0.21 -0.21 1.47 -0.12 0.32 0.32 0.36 -0.36c5.1,-0.32 10.2,-0.33 15.29,-0.03l0.4 0.4 0.35 -0.35 1.4 0.09 0.25 0.25 0.22 -0.21 1.72 0.14 0.07 0.07 0.06 -0.06c2.24,0.21 4.48,0.48 6.71,0.82l0.25 0.25 0.18 -0.19c3.18,0.48 6.33,1.09 9.46,1.81l0.39 0.38 0.24 -0.24c1.59,0.38 3.17,0.78 4.75,1.22l0.02 0.02 0.01 -0.01 2.8 0.81 0.2 0.21 0.11 -0.11 2.61 0.83 0.29 0.28 0.14 -0.14 2.63 0.91 0.24 0.23 0.11 -0.1c0.96,0.34 1.91,0.7 2.86,1.07l0.04 0.04 0.01 -0.02c2.33,0.91 4.64,1.88 6.92,2.93l0.09 0.09 0.03 -0.03c1.26,0.58 2.51,1.19 3.75,1.82l1.23 1.22 0.4 -0.4c0.87,0.46 1.74,0.93 2.61,1.41l1 1 0.28 -0.28c1.19,0.68 2.36,1.37 3.53,2.08l0.2 0.2 0.05 -0.04c1.85,1.14 3.68,2.32 5.48,3.57l1.5 1.49 0.25 -0.26c2.12,1.51 4.2,3.09 6.23,4.75l4.54 4.54 0.35 -0.35c1.61,1.44 3.19,2.94 4.74,4.49l-16.08 16.07 -16.08 16.09c-15.73,-15.71 -36.22,-23.5 -56.93,-23.53 -20.7,0.03 -41.19,7.82 -56.92,23.54l-224.42 224.41c-8.34,-13.76 -15.59,-28 -21.73,-42.6z"></path> <path class="fil4" d="M485.32 418.09l-0.09 0.1 0.69 0.7c1.25,1.69 2.39,3.42 3.43,5.21l-0.11 0.11 0.41 0.41c1.4,2.46 2.6,5 3.62,7.59l-0.02 0.02 0.04 0.04c0.37,0.96 0.72,1.92 1.04,2.89l-0.08 0.08 0.15 0.15c0.83,2.56 1.47,5.16 1.93,7.79l-0.07 0.08 0.11 0.11c1.13,6.57 1.13,13.29 -0.01,19.85l-0.1 0.1 0.07 0.07c-0.47,2.64 -1.12,5.25 -1.95,7.82l-0.13 0.13 0.06 0.06c-0.32,0.99 -0.68,1.97 -1.06,2.94l0 0.01 0 0c-0.46,1.19 -0.96,2.35 -1.5,3.51l-0.51 0.5 0.18 0.18c-0.57,1.18 -1.2,2.35 -1.85,3.51l-0.33 0.32 0.09 0.09c-1.09,1.86 -2.28,3.67 -3.6,5.43l-1.51 1.5 0.19 0.19c-1.28,1.6 -2.66,3.14 -4.14,4.62l-227.18 227.18c-12.42,-8.54 -24.39,-18.05 -35.81,-28.51l230.83 -230.83c4.79,-4.81 4.79,-12.75 0,-17.57l16.08 -16.08 16.08 -16.08c1.83,1.84 3.52,3.78 5.05,5.78zm-314.66 221.94l227.72 -227.72c0.8,-0.8 1.62,-1.56 2.45,-2.3l0.16 0.16 1.96 -1.96c8.29,-6.7 17.98,-10.78 27.97,-12.23l0.15 0.15 0.2 -0.2c10.98,-1.53 22.31,0.09 32.54,4.85l0.36 0.36 0.12 -0.12c1.24,0.59 2.46,1.22 3.67,1.91l0.22 0.22 0.06 -0.06c1.87,1.07 3.69,2.27 5.46,3.57l1.5 1.5 0.19 -0.19c1.69,1.34 3.32,2.79 4.88,4.34l-16.08 16.08 -16.08 16.08c-2.44,-2.44 -5.5,-3.6 -8.78,-3.62 -3.28,0.02 -6.34,1.18 -8.79,3.62l-230.94 230.95c-10.6,-11.27 -20.24,-23.1 -28.94,-35.39z"></path> <path class="fil5" d="M167.5 176.29l16.08 16.08 -32.16 -32.16 16.08 16.08zm16.08 16.08c70.92,-70.9 163.67,-106.27 256.62,-106.29 92.96,0.01 185.71,35.37 256.63,106.3 70.91,70.91 106.28,163.66 106.3,256.63 -0.02,92.94 -35.39,185.7 -106.29,256.62 -70.92,70.9 -163.68,106.27 -256.62,106.29 -92.96,-0.02 -185.71,-35.4 -256.63,-106.3 -70.91,-70.93 -106.28,-163.67 -106.3,-256.63 0.02,-92.95 35.39,-185.7 106.29,-256.62zm-32.16 -32.16c-159.49,159.5 -159.48,418.06 0.01,577.57 159.51,159.49 418.07,159.5 577.57,0.01 159.49,-159.5 159.48,-418.06 -0.01,-577.57 -159.51,-159.49 -418.07,-159.5 -577.57,-0.01z"></path> <path class="fil6" d="M984.94 498.72l0 112.29 -70.42 0 0 -303.96 98.75 0c21.95,0 40.7,2.29 56.18,6.81 15.49,4.51 28.13,10.83 37.92,18.89 9.79,8.05 16.88,17.57 21.32,28.61 4.44,10.97 6.67,22.98 6.67,35.9 0,9.86 -1.32,19.24 -3.96,27.99 -2.64,8.75 -6.53,16.87 -11.74,24.3 -5.21,7.43 -11.6,14.1 -19.17,19.93 -7.57,5.91 -16.31,10.7 -26.18,14.45 4.73,2.36 9.17,5.28 13.27,8.75 4.1,3.47 7.64,7.71 10.69,12.71l64.59 105.62 -63.75 0c-11.81,0 -20.28,-4.44 -25.42,-13.33l-50.42 -88.13c-2.22,-3.88 -4.79,-6.66 -7.77,-8.33 -2.99,-1.67 -7.23,-2.5 -12.64,-2.5l-17.92 0zm0 -48.75l28.33 0c9.59,0 17.78,-1.25 24.52,-3.68 6.73,-2.43 12.22,-5.76 16.52,-10.07 4.31,-4.31 7.43,-9.37 9.38,-15.14 1.94,-5.76 2.92,-11.94 2.92,-18.61 0,-13.33 -4.31,-23.75 -12.99,-31.25 -8.68,-7.5 -22.15,-11.25 -40.35,-11.25l-28.33 0 0 90z"></path> <path id="1" class="fil6" d="M1258.27 394.97l0 216.25 -64.58 0 0 -216.25 64.58 0zm7.5 -59.17c0,5.14 -1.04,9.93 -3.12,14.45 -2.09,4.51 -4.93,8.47 -8.54,11.87 -3.62,3.41 -7.78,6.11 -12.57,8.13 -4.8,2.01 -9.93,3.05 -15.35,3.05 -5.28,0 -10.21,-1.04 -14.79,-3.05 -4.59,-2.02 -8.61,-4.72 -12.16,-8.13 -3.54,-3.4 -6.31,-7.36 -8.33,-11.87 -2.01,-4.52 -3.05,-9.31 -3.05,-14.45 0,-5.27 1.04,-10.2 3.05,-14.79 2.02,-4.58 4.79,-8.61 8.33,-12.08 3.55,-3.47 7.57,-6.18 12.16,-8.13 4.58,-1.94 9.51,-2.91 14.79,-2.91 5.42,0 10.55,0.97 15.35,2.91 4.79,1.95 8.95,4.66 12.57,8.13 3.61,3.47 6.45,7.5 8.54,12.08 2.08,4.59 3.12,9.52 3.12,14.79z"></path> <path id="2" class="fil6" d="M1471.61 420.8c0,4.45 -0.84,8.68 -2.5,12.78 -1.67,4.03 -3.61,7.5 -5.84,10.42l-90.21 119.23 96.46 0 0 47.99 -170.83 0 0 -26.25c0,-2.64 0.76,-5.97 2.22,-9.93 1.46,-3.96 3.47,-7.78 6.11,-11.39l91.04 -120.69 -93.54 0 0 -47.99 167.09 0 0 25.83z"></path> <path id="3" class="fil6" d="M1605.36 391.64c16.38,0 31.32,2.57 44.79,7.7 13.47,5.14 25.07,12.51 34.72,22.09 9.65,9.58 17.15,21.25 22.5,34.93 5.35,13.75 7.99,29.1 7.99,46.18 0,17.29 -2.64,32.78 -7.99,46.67 -5.35,13.82 -12.85,25.55 -22.5,35.21 -9.65,9.65 -21.25,17.08 -34.72,22.29 -13.47,5.2 -28.41,7.84 -44.79,7.84 -16.53,0 -31.53,-2.64 -45.07,-7.84 -13.55,-5.21 -25.21,-12.64 -35,-22.29 -9.8,-9.66 -17.36,-21.39 -22.71,-35.21 -5.35,-13.89 -8.06,-29.38 -8.06,-46.67 0,-17.08 2.71,-32.43 8.06,-46.18 5.35,-13.68 12.91,-25.35 22.71,-34.93 9.79,-9.58 21.45,-16.95 35,-22.09 13.54,-5.13 28.54,-7.7 45.07,-7.7zm0 174.93c14.86,0 25.83,-5.21 32.84,-15.7 7.02,-10.48 10.49,-26.45 10.49,-47.91 0,-21.39 -3.47,-37.3 -10.49,-47.71 -7.01,-10.42 -17.98,-15.63 -32.84,-15.63 -15.28,0 -26.46,5.21 -33.55,15.63 -7.08,10.41 -10.62,26.32 -10.62,47.71 0,21.46 3.54,37.43 10.62,47.91 7.09,10.49 18.27,15.7 33.55,15.7z"></path> <path id="4" class="fil6" d="M1750.77 611.22l0 -216.25 40 0c4.03,0 7.43,0.9 10.14,2.71 2.71,1.8 4.58,4.58 5.7,8.19l3.75 12.64c4.16,-3.96 8.47,-7.57 12.91,-10.9 4.45,-3.4 9.24,-6.25 14.31,-8.54 5.07,-2.29 10.55,-4.1 16.46,-5.42 5.9,-1.32 12.29,-2.01 19.23,-2.01 11.81,0 22.29,2.08 31.39,6.18 9.1,4.09 16.74,9.79 22.99,17.08 6.25,7.29 10.97,15.97 14.16,26.04 3.2,10.07 4.8,21.04 4.8,32.85l0 137.43 -64.59 0 0 -137.29c0,-10.56 -2.43,-18.82 -7.29,-24.72 -4.86,-5.91 -12.01,-8.82 -21.46,-8.82 -7.08,0 -13.75,1.73 -20,5.21 -6.25,3.47 -12.22,8.12 -17.91,13.95l0 151.67 -64.59 0z"></path> <path id="5" class="fil6" d="M2084.94 391.64c14.3,0 27.43,2.22 39.3,6.66 11.88,4.45 22.09,10.91 30.63,19.38 8.54,8.47 15.21,18.82 20,31.11 4.79,12.29 7.15,26.25 7.15,41.81 0,4.86 -0.21,8.81 -0.62,11.87 -0.42,3.06 -1.18,5.49 -2.29,7.29 -1.12,1.81 -2.57,3.06 -4.45,3.75 -1.87,0.7 -4.3,1.04 -7.22,1.04l-124.58 0c2.08,18.13 7.57,31.25 16.45,39.45 8.89,8.12 20.35,12.22 34.38,12.22 7.5,0 13.96,-0.9 19.37,-2.71 5.42,-1.8 10.28,-3.82 14.52,-6.11 4.23,-2.22 8.12,-4.24 11.66,-6.04 3.55,-1.81 7.23,-2.71 11.12,-2.71 5.13,0 9.02,1.95 11.66,5.77l18.75 23.61c-6.66,7.5 -13.82,13.68 -21.53,18.33 -7.7,4.72 -15.62,8.47 -23.75,11.11 -8.12,2.64 -16.25,4.51 -24.37,5.56 -8.13,1.04 -15.9,1.52 -23.26,1.52 -15.14,0 -29.31,-2.5 -42.57,-7.43 -13.27,-4.93 -24.86,-12.22 -34.8,-21.94 -9.93,-9.79 -17.77,-21.88 -23.54,-36.32 -5.76,-14.45 -8.68,-31.25 -8.68,-50.49 0,-14.44 2.5,-28.12 7.43,-41.04 4.93,-12.92 12.02,-24.24 21.25,-34.03 9.24,-9.72 20.42,-17.43 33.54,-23.12 13.13,-5.7 27.92,-8.54 44.45,-8.54zm1.25 44.58c-12.36,0 -22.02,3.47 -28.96,10.49 -6.94,7.01 -11.53,17.15 -13.75,30.34l80.63 0c0,-5.13 -0.63,-10.14 -1.95,-15 -1.32,-4.86 -3.47,-9.23 -6.46,-13.05 -2.98,-3.82 -6.94,-6.88 -11.8,-9.24 -4.86,-2.36 -10.77,-3.54 -17.71,-3.54z"></path> <path id="6" class="fil7" d="M2351.19 442.33c-1.67,2.64 -3.4,4.45 -5.28,5.56 -1.87,1.11 -4.3,1.66 -7.22,1.66 -3.06,0 -6.11,-0.69 -9.17,-2.01 -3.05,-1.32 -6.32,-2.71 -9.86,-4.24 -3.54,-1.52 -7.57,-2.98 -12.01,-4.3 -4.45,-1.32 -9.52,-1.95 -15.21,-1.95 -8.2,0 -14.45,1.6 -18.82,4.73 -4.38,3.12 -6.6,7.43 -6.6,12.98 0,4.03 1.46,7.36 4.31,10 2.84,2.71 6.59,5 11.32,7.02 4.72,2.01 10.07,3.95 16.04,5.76 5.97,1.81 12.08,3.82 18.33,6.04 6.25,2.22 12.36,4.79 18.34,7.78 5.97,2.99 11.32,6.74 16.04,11.11 4.72,4.38 8.54,9.65 11.39,15.9 2.84,6.25 4.23,13.82 4.23,22.57 0,10.7 -1.94,20.56 -5.83,29.59 -3.89,9.02 -9.65,16.87 -17.36,23.4 -7.71,6.53 -17.22,11.6 -28.54,15.21 -11.32,3.61 -24.38,5.41 -39.1,5.41 -7.36,0 -14.72,-0.69 -22.08,-2.08 -7.37,-1.39 -14.45,-3.26 -21.32,-5.62 -6.88,-2.37 -13.27,-5.21 -19.1,-8.48 -5.83,-3.26 -10.83,-6.73 -15,-10.48l15 -23.89c1.8,-2.85 3.96,-5 6.46,-6.6 2.5,-1.67 5.76,-2.43 9.79,-2.43 3.75,0 7.15,0.83 10.14,2.5 2.98,1.67 6.18,3.47 9.65,5.42 3.47,1.94 7.57,3.75 12.22,5.41 4.66,1.67 10.49,2.5 17.57,2.5 5,0 9.24,-0.55 12.71,-1.59 3.47,-1.05 6.25,-2.43 8.33,-4.24 2.09,-1.81 3.61,-3.82 4.59,-6.04 0.97,-2.22 1.46,-4.51 1.46,-6.88 0,-4.3 -1.46,-7.84 -4.38,-10.62 -2.92,-2.78 -6.74,-5.21 -11.46,-7.22 -4.72,-2.02 -10.07,-3.89 -16.11,-5.63 -6.04,-1.74 -12.22,-3.68 -18.47,-5.9 -6.25,-2.22 -12.36,-4.93 -18.4,-8.06 -6.05,-3.12 -11.46,-7.08 -16.18,-11.87 -4.73,-4.79 -8.55,-10.63 -11.46,-17.57 -2.92,-6.95 -4.38,-15.35 -4.38,-25.21 0,-9.17 1.81,-17.92 5.35,-26.18 3.54,-8.26 8.82,-15.49 15.9,-21.74 7.09,-6.25 15.97,-11.25 26.67,-14.93 10.69,-3.68 23.19,-5.48 37.5,-5.48 7.78,0 15.35,0.69 22.64,2.08 7.29,1.39 14.1,3.4 20.48,5.9 6.39,2.5 12.23,5.49 17.5,8.96 5.28,3.4 9.93,7.15 13.96,11.25l-14.58 22.5z"></path> <path id="7" class="fil7" d="M2498.69 391.64c16.39,0 31.32,2.57 44.79,7.7 13.47,5.14 25.07,12.51 34.72,22.09 9.66,9.58 17.16,21.25 22.5,34.93 5.35,13.75 7.99,29.1 7.99,46.18 0,17.29 -2.64,32.78 -7.99,46.67 -5.34,13.82 -12.84,25.55 -22.5,35.21 -9.65,9.65 -21.25,17.08 -34.72,22.29 -13.47,5.2 -28.4,7.84 -44.79,7.84 -16.53,0 -31.53,-2.64 -45.07,-7.84 -13.54,-5.21 -25.21,-12.64 -35,-22.29 -9.79,-9.66 -17.36,-21.39 -22.71,-35.21 -5.35,-13.89 -8.06,-29.38 -8.06,-46.67 0,-17.08 2.71,-32.43 8.06,-46.18 5.35,-13.68 12.92,-25.35 22.71,-34.93 9.79,-9.58 21.46,-16.95 35,-22.09 13.54,-5.13 28.54,-7.7 45.07,-7.7zm0 174.93c14.86,0 25.83,-5.21 32.85,-15.7 7.01,-10.48 10.48,-26.45 10.48,-47.91 0,-21.39 -3.47,-37.3 -10.48,-47.71 -7.02,-10.42 -17.99,-15.63 -32.85,-15.63 -15.28,0 -26.46,5.21 -33.54,15.63 -7.09,10.41 -10.63,26.32 -10.63,47.71 0,21.46 3.54,37.43 10.63,47.91 7.08,10.49 18.26,15.7 33.54,15.7z"></path> <path id="8" class="fil7" d="M2653.69 611.22l0 -171.87 -14.17 -2.92c-4.86,-1.11 -8.75,-2.85 -11.73,-5.21 -2.99,-2.36 -4.52,-5.83 -4.52,-10.42l0 -25.41 30.42 0 0 -12.29c0,-12.37 2.01,-23.55 5.97,-33.55 3.96,-10 9.65,-18.54 17.08,-25.62 7.43,-7.09 16.46,-12.57 27.16,-16.46 10.69,-3.89 22.84,-5.83 36.45,-5.83 5.28,0 10.21,0.34 14.73,1.11 4.51,0.69 9.16,1.87 14.03,3.47l-1.25 31.04c-0.14,2.15 -0.7,3.96 -1.74,5.42 -1.04,1.39 -2.36,2.57 -3.89,3.47 -1.53,0.9 -3.19,1.53 -5.07,1.95 -1.87,0.41 -3.75,0.62 -5.56,0.62 -5.69,0 -10.76,0.56 -15.2,1.67 -4.45,1.11 -8.13,3.05 -11.11,5.9 -2.99,2.85 -5.28,6.6 -6.81,11.25 -1.53,4.65 -2.29,10.56 -2.29,17.64l0 10.21 50.83 0 0 44.16 -48.75 0 0 171.67 -64.58 0z"></path> <path id="9" class="fil7" d="M2870.77 614.55c-10.28,0 -19.3,-1.52 -27.15,-4.51 -7.85,-2.99 -14.45,-7.22 -19.79,-12.71 -5.35,-5.48 -9.45,-12.15 -12.22,-19.93 -2.78,-7.78 -4.17,-16.46 -4.17,-26.04l0 -111.81 -18.33 0c-3.34,0 -6.18,-1.04 -8.55,-3.19 -2.36,-2.08 -3.54,-5.21 -3.54,-9.31l0 -24.86 34.38 -6.73 12.71 -53.13c1.66,-6.74 6.38,-10.07 14.16,-10.07l33.75 0 0 63.13 52.5 0 0 44.16 -52.5 0 0 107.3c0,5 1.25,9.09 3.68,12.36 2.43,3.26 5.91,4.93 10.49,4.93 2.36,0 4.37,-0.28 5.97,-0.77 1.6,-0.48 2.99,-1.04 4.17,-1.66 1.18,-0.63 2.29,-1.18 3.33,-1.67 1.04,-0.49 2.22,-0.69 3.61,-0.69 1.95,0 3.54,0.41 4.72,1.31 1.19,0.98 2.37,2.37 3.62,4.31l19.58 30.83c-8.33,6.25 -17.71,10.91 -28.13,14.03 -10.41,3.13 -21.18,4.72 -32.29,4.72z"></path> </g> </svg> 