<svg id="Layer_1" data-name="Layer 1" xmlns="http://www.w3.org/2000/svg" viewBox="0 0 484 200"><defs><style>.cls-1{fill:#fff;}.cls-2{fill:#ee5b21;}</style></defs><title>nitro-logo-orange-white</title><path class="cls-1" d="M225.25,152a3.35,3.35,0,0,1-3.21,2.78H206.17a2.38,2.38,0,0,1-2.41-2.78l8-56.17a3.62,3.62,0,0,0-1.1-2.87c-.74-.64-1-.66-1-.66-1.53-.16-4.05-.3-5.6-.3h-8.37a39,39,0,0,0-5.89.45l-2,.29a4.27,4.27,0,0,0-3,3.36L177,152a3.33,3.33,0,0,1-3.2,2.78H157.92a2.38,2.38,0,0,1-2.41-2.78l10.11-72.07a3.32,3.32,0,0,1,3.19-2.78h13.81a2.82,2.82,0,0,1,2.8,2.81v5.13A17.83,17.83,0,0,1,195,78.73c3.92-1.08,11.46-1.47,11.46-1.47,1.54-.08,4.06-.15,5.61-.15h4.55a32.82,32.82,0,0,1,8.53.94,12.61,12.61,0,0,1,5.37,2.8,9.7,9.7,0,0,1,2.72,4.67,21.89,21.89,0,0,1,.59,3.88,34.66,34.66,0,0,1-.26,5.58Z"/><path class="cls-1" d="M258.57,152a3.32,3.32,0,0,1-3.19,2.78H239.51a2.39,2.39,0,0,1-2.42-2.78L247.2,79.89a3.34,3.34,0,0,1,3.2-2.78h15.86a2.38,2.38,0,0,1,2.42,2.78Zm12.65-89.53A3.33,3.33,0,0,1,268,65.21H252.17a2.39,2.39,0,0,1-2.43-2.78l1.73-12.53a3.34,3.34,0,0,1,3.2-2.77h15.86A2.38,2.38,0,0,1,273,49.9Z"/><path class="cls-1" d="M334.33,89.18A3.33,3.33,0,0,1,331.14,92H312a3.37,3.37,0,0,0-3.21,2.78l-5.62,38.45v2a4.52,4.52,0,0,0,.37,1.84,2.68,2.68,0,0,0,1.32,1.34l.64.33c1.23.1,3.49.17,5,.17h13.36a2.39,2.39,0,0,1,2.43,2.78l-1.1,8.1a42.58,42.58,0,0,1-13.46,4.19,89.45,89.45,0,0,1-10.52.8,60.78,60.78,0,0,1-8.08-.49,16,16,0,0,1-6.33-2.15,10.84,10.84,0,0,1-4.12-4.86,21.17,21.17,0,0,1-1.26-5.71,31.54,31.54,0,0,1,.19-5.58l6-41.2a2.36,2.36,0,0,0-2.4-2.78h-7.78a2.38,2.38,0,0,1-2.41-2.78l1.13-8.11a3.33,3.33,0,0,1,3.2-2.78h7.77a3.35,3.35,0,0,0,3.21-2.78l2.14-14.88a3.81,3.81,0,0,1,3.19-3.08l15.9-1.75A2.08,2.08,0,0,1,314,58.28l-2.45,17.23A2.38,2.38,0,0,0,314,78.29h19.1a2.38,2.38,0,0,1,2.42,2.78Z"/><path class="cls-1" d="M393.86,92.27a3.33,3.33,0,0,1-3.2,2.78h-7c-1,0-2.41,0-4.27.15s-3.85.23-6,.43-4.14.4-6.1.64l-2,.25a4.53,4.53,0,0,0-3.12,3.46l-7.44,52a3.34,3.34,0,0,1-3.2,2.78H335.67a2.37,2.37,0,0,1-2.41-2.78l10.1-72.07a3.34,3.34,0,0,1,3.2-2.78h13.66a2.82,2.82,0,0,1,2.8,2.81v6.16a53,53,0,0,1,10.15-6.17,33.13,33.13,0,0,1,14.27-2.79h5.73a2.38,2.38,0,0,1,2.42,2.77Z"/><path class="cls-1" d="M464.48,130.55a31.16,31.16,0,0,1-3.9,11.74,22.42,22.42,0,0,1-7.21,7.46,28.93,28.93,0,0,1-10.07,3.86,81.52,81.52,0,0,1-9.56,1c-1.54.06-4.06.12-5.6.12h-8.23a60.49,60.49,0,0,1-11.63-1,22.17,22.17,0,0,1-8.45-3.37,14.25,14.25,0,0,1-5.15-6.47,31.65,31.65,0,0,1-1.49-7.61,30.47,30.47,0,0,1,.2-5.57l4.45-31.11a23.36,23.36,0,0,1,4-10.48,25,25,0,0,1,7.58-7,33.26,33.26,0,0,1,9.93-3.87,61.82,61.82,0,0,1,8.38-1c1.53-.08,4.06-.15,5.6-.15h9.85a49.42,49.42,0,0,1,10.59,1.06,23,23,0,0,1,8.31,3.44,16.92,16.92,0,0,1,5.44,6.26,23.13,23.13,0,0,1,1.73,6.84,28,28,0,0,1-.16,5.57ZM440.21,92.41H429a12.67,12.67,0,0,0-6.33,1.43,5.76,5.76,0,0,0-2.3,2.76,35.79,35.79,0,0,0-1.35,5.42l-4.88,32.23a4.37,4.37,0,0,0,2.07,3.76,7.43,7.43,0,0,0,3.09,1.14c1.53.17,4.06.3,5.59.3h8.23a12.45,12.45,0,0,0,6.4-1.51,5.42,5.42,0,0,0,2.27-2.67,40.54,40.54,0,0,0,1.32-5.43l4.87-32C448,94.22,445.4,92.41,440.21,92.41Z"/><path class="cls-2" d="M139.52,23,90.66,10c-.3-.08-.59-.13-.88-.19l-.33-.07-.59-.07a9,9,0,0,0-3.72.3c-3.46,1.1-5.45,4.5-4.8,9.16L82.41,34l5.37,38.7-.3-.37-.07-.09L65.24,48.46l-.12-.13a4.14,4.14,0,0,0-3.84-1.6,8.57,8.57,0,0,0-4.87,2.78L36.71,69.28c-4.83,4.85-9.59,14.36-10.58,21.14l-10.64,73a14.37,14.37,0,0,0,10.24,15.51l48.86,13a11.16,11.16,0,0,0,3.49.39c4.68-.27,7.6-4,6.83-9.53l-7.43-53.59.3.37.07.09L100,153.4l.11.13c2,2.46,5.34,2.22,8.71-1.17l19.7-19.77c4.83-4.85,9.6-14.36,10.58-21.14l10.65-73A14.36,14.36,0,0,0,139.52,23ZM95.92,132.42l-.09-.1L76.75,115.23h0l-1.39-1.39-.5-3.59-5.7-41,.27.28L88.51,86.63h0L89.9,88h0l.5,3.59,5.69,41Z"/></svg>